<svg height="137.001" viewBox="0 0 295 137.001" width="295" xmlns="http://www.w3.org/2000/svg"><rect fill="#fff" height="137" rx="20" width="295"/><path d="m35.206 137h-15.206a19.984 19.984 0 0 1 -20-20v-97a19.983 19.983 0 0 1 20-20h255a19.983 19.983 0 0 1 20 20v97a19.983 19.983 0 0 1 -20 20h-197.7v-9.507h13.344a1.711 1.711 0 0 0 .532-3.335c-2.878-.944-10.983-4.332-13.878-8.611v-7.31h13.346a1.711 1.711 0 0 0 .532-3.335c-2.876-.945-10.983-4.332-13.876-8.612v-7.308h13.344a1.717 1.717 0 0 0 1.685-1.441 1.7 1.7 0 0 0 -1.153-1.894c-2.876-.947-10.985-4.336-13.876-8.612v-7.309h13.344a1.711 1.711 0 0 0 .532-3.336c-2.876-.944-10.982-4.329-13.876-8.61v-7.31h9.109a1.71 1.71 0 0 0 .615-3.306 59.289 59.289 0 0 1 -9.466-5.148 81.971 81.971 0 0 1 -9.21-6.968 82.453 82.453 0 0 1 -10.02-10.433v-11.76a2.074 2.074 0 1 0 -4.147 0v11.76c-13.162 16.385-28.545 22.485-28.699 22.55a1.711 1.711 0 0 0 .618 3.305h9.11v7.3c-.983 1.464-3.2 3.73-8.189 6.218a48.29 48.29 0 0 1 -5.688 2.4 1.711 1.711 0 0 0 .534 3.335h13.339v7.3c-3.432 5.112-13.774 8.586-13.877 8.619a1.711 1.711 0 0 0 .534 3.335h13.343v7.3c-3.441 5.126-13.771 8.582-13.875 8.617a1.71 1.71 0 0 0 .532 3.335h13.343v7.3c-3.448 5.137-13.774 8.586-13.877 8.618a1.711 1.711 0 0 0 .534 3.335h13.343z" fill="#008649"/><g fill="#fff"><path d="m12.2-38.714-3.1 1.23q-.248-1.894-1.782-1.894a2.082 2.082 0 0 0 -1.488.474 1.876 1.876 0 0 0 -.5 1.421 2.02 2.02 0 0 0 .541 1.331l3.992 4.465a3.939 3.939 0 0 1 1.105 2.661v.925a3.639 3.639 0 0 1 -1.105 2.65 3.609 3.609 0 0 1 -2.663 1.115h-1.869a3.854 3.854 0 0 1 -2.819-.936 3.819 3.819 0 0 1 -.947-2.83h1.894v.316a1.338 1.338 0 0 0 .586 1.173 2.211 2.211 0 0 0 1.285.406 1.851 1.851 0 0 0 1.432-.485 2.03 2.03 0 0 0 .438-1.408 1.963 1.963 0 0 0 -.541-1.331l-3.989-4.469a3.884 3.884 0 0 1 -1.105-2.661v-.925a3.639 3.639 0 0 1 1.105-2.65 3.609 3.609 0 0 1 2.661-1.114h1.869c2.363 0 4.849.025 5 2.536zm4.465 14.378v-15.042h-3.765v-1.872h11.275v1.872h-3.767v15.042zm11.975-16.914h3.766a3.584 3.584 0 0 1 2.639 1.116 3.639 3.639 0 0 1 1.105 2.65v9.384a3.639 3.639 0 0 1 -1.105 2.65 3.584 3.584 0 0 1 -2.639 1.116h-3.766a3.639 3.639 0 0 1 -2.65-1.105 3.609 3.609 0 0 1 -1.116-2.661v-9.382a3.609 3.609 0 0 1 1.116-2.661 3.639 3.639 0 0 1 2.65-1.107zm0 3.766v9.384a1.838 1.838 0 0 0 .553 1.331 1.783 1.783 0 0 0 1.319.564 1.809 1.809 0 0 0 1.342-.564 1.838 1.838 0 0 0 .553-1.331v-9.382a1.827 1.827 0 0 0 -.553-1.342 1.827 1.827 0 0 0 -1.342-.553 1.8 1.8 0 0 0 -1.319.553 1.827 1.827 0 0 0 -.553 1.34zm10.1 13.148v-16.914h7.532a3.584 3.584 0 0 1 2.639 1.116 3.639 3.639 0 0 1 1.105 2.65v1.872a3.639 3.639 0 0 1 -1.105 2.65 3.584 3.584 0 0 1 -2.639 1.116h-3.763v7.51zm3.766-9.4h1.872a1.827 1.827 0 0 0 1.342-.553 1.8 1.8 0 0 0 .553-1.319v-1.872a1.827 1.827 0 0 0 -.553-1.342 1.827 1.827 0 0 0 -1.342-.553h-1.869zm25.848 5.636q-.226 3.766-3.744 3.766h-3.766a3.639 3.639 0 0 1 -2.65-1.105 3.609 3.609 0 0 1 -1.116-2.661v-9.382a3.658 3.658 0 0 1 1.094-2.65 3.6 3.6 0 0 1 2.672-1.116h3.766q3.541 0 3.744 3.766h-1.872q-.226-1.894-1.872-1.894h-1.894a1.8 1.8 0 0 0 -1.319.553 1.827 1.827 0 0 0 -.553 1.342v9.381a1.838 1.838 0 0 0 .553 1.331 1.783 1.783 0 0 0 1.319.564h1.894q1.669 0 1.872-1.894zm6.36-13.148h3.766a3.584 3.584 0 0 1 2.639 1.116 3.639 3.639 0 0 1 1.105 2.65v9.382a3.639 3.639 0 0 1 -1.105 2.65 3.584 3.584 0 0 1 -2.639 1.116h-3.766a3.639 3.639 0 0 1 -2.65-1.105 3.609 3.609 0 0 1 -1.116-2.661v-9.382a3.609 3.609 0 0 1 1.116-2.661 3.639 3.639 0 0 1 2.65-1.107zm0 3.766v9.382a1.838 1.838 0 0 0 .553 1.331 1.783 1.783 0 0 0 1.319.564 1.809 1.809 0 0 0 1.342-.564 1.838 1.838 0 0 0 .552-1.331v-9.382a1.827 1.827 0 0 0 -.553-1.342 1.827 1.827 0 0 0 -1.342-.553 1.8 1.8 0 0 0 -1.319.553 1.827 1.827 0 0 0 -.552 1.34zm17.636-3.768h3.744v10.487a6.2 6.2 0 0 1 -1.884 4.533 6.148 6.148 0 0 1 -4.522 1.894h-4.871v-16.914h3.766v15.042h1.872a1.809 1.809 0 0 0 1.342-.564 1.838 1.838 0 0 0 .553-1.328zm8.232 16.914v-16.914h3.744v16.914zm8.209 0v-16.914h7.532a3.584 3.584 0 0 1 2.639 1.116 3.639 3.639 0 0 1 1.105 2.65v9.384a3.639 3.639 0 0 1 -1.105 2.65 3.584 3.584 0 0 1 -2.639 1.116zm3.766-1.872h1.872a1.809 1.809 0 0 0 1.342-.564 1.838 1.838 0 0 0 .553-1.331v-9.382a1.827 1.827 0 0 0 -.553-1.342 1.827 1.827 0 0 0 -1.342-.553h-1.872zm11.333-5v-1.872h9.4v1.88zm14.51 6.872v-13.148h-1.872v-1.894l3.744-1.872h1.894v16.914zm13.87-13.148v3.744a1.838 1.838 0 0 0 .553 1.331 1.783 1.783 0 0 0 1.319.564 1.809 1.809 0 0 0 1.342-.564 1.838 1.838 0 0 0 .553-1.331v-3.744a1.827 1.827 0 0 0 -.553-1.342 1.827 1.827 0 0 0 -1.342-.553 1.783 1.783 0 0 0 -1.319.564 1.838 1.838 0 0 0 -.552 1.331zm3.766 5.638q-.226 1.872-1.894 1.872h-1.872a3.639 3.639 0 0 1 -2.65-1.105 3.609 3.609 0 0 1 -1.12-2.661v-3.744a3.62 3.62 0 0 1 1.116-2.65 3.62 3.62 0 0 1 2.65-1.116h3.766a3.584 3.584 0 0 1 2.639 1.116 3.639 3.639 0 0 1 1.105 2.65v6.563a6.356 6.356 0 0 1 -1.928 4.646 6.3 6.3 0 0 1 -4.634 1.939h-2.814v-1.872h1.872a3.609 3.609 0 0 0 2.661-1.116 3.639 3.639 0 0 0 1.105-2.65z" transform="translate(111.326 86.299)"/><path d="m-154.25-44.247v-30.753h6.848v12.547l11.071-12.547h6.028l-13.697 15.376 13.7 15.376h-6.848l-10.252-11.972v11.973zm37.6 0v-13.653q-6.848-.82-6.848-6.848v-10.252h6.848v10.251a3.274 3.274 0 0 0 1 2.4 3.274 3.274 0 0 0 2.4 1 3.322 3.322 0 0 0 2.44-1 3.274 3.274 0 0 0 1-2.4v-10.251h6.81v10.251q0 6.028-6.807 6.848v13.654zm27.35-30.753h6.848a6.516 6.516 0 0 1 4.8 2.03 6.616 6.616 0 0 1 2.009 4.818v17.058a6.616 6.616 0 0 1 -2.009 4.818 6.516 6.516 0 0 1 -4.8 2.03h-6.848a6.616 6.616 0 0 1 -4.818-2.009 6.562 6.562 0 0 1 -2.03-4.838v-17.059a6.562 6.562 0 0 1 2.03-4.838 6.616 6.616 0 0 1 4.818-2.01zm0 6.848v17.058a3.342 3.342 0 0 0 1 2.419 3.242 3.242 0 0 0 2.4 1.025 3.288 3.288 0 0 0 2.44-1.025 3.342 3.342 0 0 0 1-2.419v-17.058a3.322 3.322 0 0 0 -1-2.44 3.322 3.322 0 0 0 -2.44-1 3.274 3.274 0 0 0 -2.4 1 3.322 3.322 0 0 0 -1 2.44zm23.946 23.905v-27.353h-6.846v-3.4h20.5v3.4h-6.848v27.35zm23.906-30.753h6.848a6.516 6.516 0 0 1 4.8 2.03 6.616 6.616 0 0 1 2.009 4.818v17.058a6.616 6.616 0 0 1 -2.009 4.817 6.515 6.515 0 0 1 -4.8 2.03h-6.848a6.616 6.616 0 0 1 -4.818-2.009 6.562 6.562 0 0 1 -2.03-4.838v-17.058a6.562 6.562 0 0 1 2.03-4.838 6.616 6.616 0 0 1 4.818-2.01zm0 6.848v17.058a3.342 3.342 0 0 0 1 2.419 3.242 3.242 0 0 0 2.4 1.025 3.288 3.288 0 0 0 2.44-1.025 3.342 3.342 0 0 0 1-2.419v-17.058a3.322 3.322 0 0 0 -1-2.44 3.322 3.322 0 0 0 -2.44-1 3.274 3.274 0 0 0 -2.4 1 3.322 3.322 0 0 0 -1 2.44z" transform="translate(297.15 149.674)"/></g></svg>